. 
  
http://www.torrentday.com/        :     The Hottest Private Tracker On The Net!!!
 
http://www.torrentday.com          :     Once & For all ;)


               www . TorrentDay . Com 

(((((((((((((= Enjoy No RAR releases =))))))))))))))))))))


...................................NFO:....................................

.[img]http://img130.imageshack.us/img130/1039/gulliverstravels2010fro.jpg[/img]

Gullivers Travels 2010 R5 XVID AC3-5.1 HQ Hive-CM8



[b]Thx Hive

CM8 Doing It Right The First Time :D

Sources:
Video: Russian R5 DVD-R
Puteshestvija.Gullivera.2010.DVD-5
Audio: Gullivers Travels 2010 R5 AC3 XViD-T0XiC-iNK
thx

Video: 720x304 @bitrate 2000 2pass
Audio: English 5.1 @448
Sample: yes included

Encode:

added brightness,sharpness,chroma,rgb and denoise and tried to clean the line from the remaining hiss and noise, got a bit better but not much, also the dvd was not the sharpest.[/b]
 
http://www.imdb.com/title/tt1320261/


General
Complete name                    : Gullivers.Travels.2010.R5.XVID.AC3-5.1.HQ.Hive-CM8.avi
Format                           : AVI
Format/Info                      : Audio Video Interleave
File size                        : 1.39 GiB
Duration                         : 1h 21mn
Overall bit rate                 : 2 457 Kbps
Writing application              : Nandub v1.0rc2
Writing library                  : Nandub build 1853/release

Video
ID                               : 0
Format                           : MPEG-4 Visual
Format profile                   : Advanced Simple@L5
Format settings, BVOP            : Yes
Format settings, QPel            : Yes
Format settings, GMC             : No warppoints
Format settings, Matrix          : Default (H.263)
Muxing mode                      : Packed bitstream
Codec ID                         : XVID
Codec ID/Hint                    : XviD
Duration                         : 1h 21mn
Bit rate                         : 2 000 Kbps
Width                            : 720 pixels
Height                           : 304 pixels
Display aspect ratio             : 2.35:1
Frame rate                       : 25.000 fps
Color space                      : YUV
Chroma subsampling               : 4:2:0
Bit depth                        : 8 bits
Scan type                        : Progressive
Bits/(Pixel*Frame)               : 0.365
Stream size                      : 1.13 GiB (81%)
Writing library                  : XviD 1.2.1 (UTC 2008-12-04)

Audio
ID                               : 1
Format                           : AC-3
Format/Info                      : Audio Coding 3
Mode extension                   : CM (complete main)
Codec ID                         : 2000
Duration                         : 1h 21mn
Bit rate mode                    : Constant
Bit rate                         : 448 Kbps
Channel(s)                       : 6 channels
Channel positions                : Front: L C R, Side: L R, LFE
Sampling rate                    : 48.0 KHz
Bit depth                        : 16 bits
Video delay                      : 28ms
Stream size                      : 260 MiB (18%)
Alignment                        : Split accross interleaves
Interleave, duration             : 40 ms (1.00 video frame)
Interleave, preload duration     : 500 ms




Jack Black ... Lemuel Gulliver
Jason Segel ... Horatio
Emily Blunt ... Princess Mary
Amanda Peet ... Darcy Silverman
Billy Connolly ... King Theodore
Chris O'Dowd ... General Edward
T.J. Miller ... Dan
James Corden ... Jinks
Catherine Tate ... Queen Isabelle
Emmanuel Quatra ... King Leopold
Olly Alexander ... Prince August



Travel writer Lemuel Gulliver takes an assignment in Bermuda, but ends up 
on the island of Liliput, where he towers over its tiny citizens. 



[img]http://img46.imageshack.us/img46/7254/ggguguguguguu.png[/img]
[img]http://img823.imageshack.us/img823/6928/ggguguguguu.png[/img]
[img]http://img96.imageshack.us/img96/6070/gguguguguu.png[/img]
[img]http://img43.imageshack.us/img43/7822/gguguguu.png[/img]
[img]http://img525.imageshack.us/img525/7254/gguguu.png[/img]
[img]http://img251.imageshack.us/img251/9779/gguu.png[/img]
[img]http://img204.imageshack.us/img204/2659/18204492.png[/img]





Greetz

iNK,LUSi,,MAGNET,CLASSiFiED,THC,LEGi0N,T0XiC,IMAGiNE,ViSiON,WBZ,FLAWL3SS,NOVA
Vik,Rapeseed,D2U,SAFC,goldadvance,MEMORY100,KaN1vE,Unevano,Pinnz,Wayne,Mr Hive
and all P2P groups 
Great Work Guys :D